# xmcd
# 
# Track frame offsets:
#     150
#     1944
#     19284
#     42451
#     61263
#     88118
#     94031
#     120397
#     136323
#     160004
#     178389
#     205049
#     220476
# 
# Disc length: 2977
# 
# Revision: 10
# Processed by: cddbd v1.5.2PL0 Copyright (c) Steve Scherf et al.
# Submitted via: fre:ac v1.0.17
# 
DISCID=af0b9f0d
DTITLE=Sabaton - The Art of War
DYEAR=2008
DGENRE=Power Metal
TTITLE0=Sun Tzu Says
TTITLE1=Ghost Division
TTITLE2=The Art of War
TTITLE3=40:1
TTITLE4=Unbreakable
TTITLE5=The Nature of Warfare
TTITLE6=Cliffs of Gallipoli
TTITLE7=Talvisota
TTITLE8=Panzerkampf
TTITLE9=Union (Slopes of St. Benedict)
TTITLE10=The Price of a Mile
TTITLE11=Firestorm
TTITLE12=A Secret
EXTD=
EXTT0=
EXTT1=
EXTT2=
EXTT3=
EXTT4=
EXTT5=
EXTT6=
EXTT7=
EXTT8=
EXTT9=
EXTT10=
EXTT11=
EXTT12=
PLAYORDER=
